<svg xmlns="http://www.w3.org/2000/svg" viewBox="0 0 64 64" role="img" aria-label="KalendAI">
  <defs>
    <linearGradient id="bg" x1="10" y1="6" x2="54" y2="58" gradientUnits="userSpaceOnUse">
      <stop stop-color="#0f766e"/>
      <stop offset="0.55" stop-color="#2563eb"/>
      <stop offset="1" stop-color="#111827"/>
    </linearGradient>
    <linearGradient id="spark" x1="24" y1="20" x2="43" y2="45" gradientUnits="userSpaceOnUse">
      <stop stop-color="#fef3c7"/>
      <stop offset="1" stop-color="#fde68a"/>
    </linearGradient>
  </defs>
  <rect width="64" height="64" rx="16" fill="url(#bg)"/>
  <path fill="#e0f2fe" d="M19 17h26a6 6 0 0 1 6 6v23a6 6 0 0 1-6 6H19a6 6 0 0 1-6-6V23a6 6 0 0 1 6-6Z" opacity="0.96"/>
  <path fill="#0f172a" d="M13 26h38v5H13z" opacity="0.12"/>
  <path stroke="#0f172a" stroke-linecap="round" stroke-width="4" d="M23 13v8M41 13v8" opacity="0.8"/>
  <path fill="#0f766e" d="M21 36h8v8h-8zM35 36h8v8h-8z" opacity="0.85"/>
  <path fill="url(#spark)" d="m32 18 3.2 8.8L44 30l-8.8 3.2L32 42l-3.2-8.8L20 30l8.8-3.2L32 18Z"/>
  <circle cx="32" cy="30" r="3.3" fill="#111827"/>
</svg>
